G04 Layer_Color=16711935*
%FSLAX25Y25*%
%MOIN*%
G70*
G01*
G75*
%ADD28R,0.04537X0.04340*%
%ADD35C,0.26575*%
%ADD36R,0.06506X0.06506*%
%ADD37C,0.06506*%
D28*
X26850Y46500D02*
D03*
X33150D02*
D03*
X26850Y56500D02*
D03*
X33150D02*
D03*
X26850Y62500D02*
D03*
X33150D02*
D03*
X26850Y68500D02*
D03*
X33150D02*
D03*
D35*
X242173Y104500D02*
D03*
Y13949D02*
D03*
X13827Y104500D02*
D03*
Y13949D02*
D03*
D36*
X33000Y99500D02*
D03*
D37*
X43000D02*
D03*
X53000D02*
D03*
X63000D02*
D03*
X73000D02*
D03*
X83000D02*
D03*
X93000D02*
D03*
X103000D02*
D03*
X113000D02*
D03*
X123000D02*
D03*
X133000D02*
D03*
X143000D02*
D03*
X153000D02*
D03*
X163000D02*
D03*
X173000D02*
D03*
X183000D02*
D03*
X193000D02*
D03*
X203000D02*
D03*
X213000D02*
D03*
X223000D02*
D03*
X33000Y109500D02*
D03*
X43000D02*
D03*
X53000D02*
D03*
X63000D02*
D03*
X73000D02*
D03*
X83000D02*
D03*
X93000D02*
D03*
X103000D02*
D03*
X113000D02*
D03*
X123000D02*
D03*
X133000D02*
D03*
X143000D02*
D03*
X153000D02*
D03*
X163000D02*
D03*
X173000D02*
D03*
X183000D02*
D03*
X193000D02*
D03*
X203000D02*
D03*
X213000D02*
D03*
X223000D02*
D03*
M02*
