G04 Layer_Color=8388736*
%FSLAX25Y25*%
%MOIN*%
G70*
G01*
G75*
%ADD27R,0.04537X0.04537*%
%ADD28R,0.04537X0.04340*%
%ADD29R,0.06506X0.04931*%
%ADD30R,0.04340X0.04537*%
%ADD31R,0.04340X0.04143*%
%ADD32R,0.03750X0.03750*%
%ADD33R,0.04537X0.10246*%
%ADD34R,0.10246X0.04537*%
%ADD35C,0.06506*%
%ADD36R,0.06506X0.06506*%
%ADD37C,0.26575*%
%ADD38C,0.02800*%
D27*
X142500Y60000D02*
D03*
Y75000D02*
D03*
Y67500D02*
D03*
Y82500D02*
D03*
D28*
X136201Y60000D02*
D03*
X148799Y60000D02*
D03*
Y75000D02*
D03*
X136201Y75000D02*
D03*
Y67500D02*
D03*
X148799Y67500D02*
D03*
Y82500D02*
D03*
X136201Y82500D02*
D03*
X80650Y66500D02*
D03*
X74350D02*
D03*
X80650Y60500D02*
D03*
X74350D02*
D03*
X80650Y54500D02*
D03*
X74350D02*
D03*
X74350Y48500D02*
D03*
X80650D02*
D03*
X74350Y42500D02*
D03*
X80650D02*
D03*
X80650Y72500D02*
D03*
X74350D02*
D03*
D29*
X186594Y37953D02*
D03*
Y32047D02*
D03*
X198406D02*
D03*
Y37953D02*
D03*
D30*
X206000Y38150D02*
D03*
Y31850D02*
D03*
X186500Y44850D02*
D03*
Y51150D02*
D03*
X198500Y51150D02*
D03*
Y44850D02*
D03*
D31*
X48150Y14000D02*
D03*
X41850D02*
D03*
X48150Y8500D02*
D03*
X41850D02*
D03*
X48150Y19500D02*
D03*
X41850D02*
D03*
D32*
X86850Y54500D02*
D03*
X93150D02*
D03*
X86850Y60500D02*
D03*
X93150D02*
D03*
X86850Y66500D02*
D03*
X93150D02*
D03*
X86850Y72500D02*
D03*
X93150D02*
D03*
D33*
X2476Y34433D02*
D03*
X7988D02*
D03*
X13500D02*
D03*
X19012D02*
D03*
X24524D02*
D03*
X30035D02*
D03*
X35547D02*
D03*
X41059D02*
D03*
X41059Y84000D02*
D03*
X35547D02*
D03*
X30035Y84000D02*
D03*
X24524D02*
D03*
X19012D02*
D03*
X13500D02*
D03*
X7988D02*
D03*
X2476D02*
D03*
D34*
X50094Y39925D02*
D03*
Y45437D02*
D03*
Y50949D02*
D03*
Y56461D02*
D03*
Y61972D02*
D03*
Y67484D02*
D03*
Y72996D02*
D03*
Y78508D02*
D03*
D35*
X223000Y109500D02*
D03*
X213000D02*
D03*
X203000D02*
D03*
X193000D02*
D03*
X183000D02*
D03*
X173000D02*
D03*
X163000D02*
D03*
X153000D02*
D03*
X143000D02*
D03*
X133000D02*
D03*
X123000D02*
D03*
X113000D02*
D03*
X103000D02*
D03*
X93000D02*
D03*
X83000D02*
D03*
X73000D02*
D03*
X63000D02*
D03*
X53000D02*
D03*
X43000D02*
D03*
X33000D02*
D03*
X223000Y99500D02*
D03*
X213000D02*
D03*
X203000D02*
D03*
X193000D02*
D03*
X183000D02*
D03*
X173000D02*
D03*
X163000D02*
D03*
X153000D02*
D03*
X143000D02*
D03*
X133000D02*
D03*
X123000D02*
D03*
X113000D02*
D03*
X103000D02*
D03*
X93000D02*
D03*
X83000D02*
D03*
X73000D02*
D03*
X63000D02*
D03*
X53000D02*
D03*
X43000D02*
D03*
D36*
X33000D02*
D03*
D37*
X13827Y13949D02*
D03*
Y104500D02*
D03*
X242173Y13949D02*
D03*
Y104500D02*
D03*
D38*
X41000Y42500D02*
D03*
X20000Y51000D02*
D03*
X41000Y68500D02*
D03*
X20000D02*
D03*
X19012Y75024D02*
D03*
X7988D02*
D03*
X20000Y62500D02*
D03*
Y56500D02*
D03*
Y46500D02*
D03*
X157500Y60000D02*
D03*
X206000Y62500D02*
D03*
X198500D02*
D03*
X186500D02*
D03*
X127500Y60000D02*
D03*
Y67500D02*
D03*
Y75000D02*
D03*
X177500Y32000D02*
D03*
X100000Y54500D02*
D03*
Y60500D02*
D03*
Y66500D02*
D03*
Y72500D02*
D03*
X87500Y48500D02*
D03*
Y42500D02*
D03*
X35000Y8500D02*
D03*
M02*
