G04 Layer_Color=8421504*
%FSLAX25Y25*%
%MOIN*%
G70*
G01*
G75*
%ADD10R,0.03937X0.03937*%
%ADD11R,0.03937X0.03740*%
%ADD12R,0.05905X0.04331*%
%ADD13R,0.03740X0.03937*%
%ADD14R,0.03740X0.03543*%
%ADD15R,0.03150X0.03150*%
%ADD16R,0.03937X0.09646*%
%ADD17R,0.09646X0.03937*%
D10*
X142500Y60000D02*
D03*
Y75000D02*
D03*
Y67500D02*
D03*
Y82500D02*
D03*
D11*
X136201Y60000D02*
D03*
X148799Y60000D02*
D03*
Y75000D02*
D03*
X136201Y75000D02*
D03*
Y67500D02*
D03*
X148799Y67500D02*
D03*
Y82500D02*
D03*
X136201Y82500D02*
D03*
X80650Y66500D02*
D03*
X74350D02*
D03*
X80650Y60500D02*
D03*
X74350D02*
D03*
X80650Y54500D02*
D03*
X74350D02*
D03*
X74350Y48500D02*
D03*
X80650D02*
D03*
X74350Y42500D02*
D03*
X80650D02*
D03*
X80650Y72500D02*
D03*
X74350D02*
D03*
D12*
X186594Y37953D02*
D03*
Y32047D02*
D03*
X198406D02*
D03*
Y37953D02*
D03*
D13*
X206000Y38150D02*
D03*
Y31850D02*
D03*
X186500Y44850D02*
D03*
Y51150D02*
D03*
X198500Y51150D02*
D03*
Y44850D02*
D03*
D14*
X48150Y14000D02*
D03*
X41850D02*
D03*
X48150Y8500D02*
D03*
X41850D02*
D03*
X48150Y19500D02*
D03*
X41850D02*
D03*
D15*
X86850Y54500D02*
D03*
X93150D02*
D03*
X86850Y60500D02*
D03*
X93150D02*
D03*
X86850Y66500D02*
D03*
X93150D02*
D03*
X86850Y72500D02*
D03*
X93150D02*
D03*
D16*
X2476Y34433D02*
D03*
X7988D02*
D03*
X13500D02*
D03*
X19012D02*
D03*
X24524D02*
D03*
X30035D02*
D03*
X35547D02*
D03*
X41059D02*
D03*
X41059Y84000D02*
D03*
X35547D02*
D03*
X30035Y84000D02*
D03*
X24524D02*
D03*
X19012D02*
D03*
X13500D02*
D03*
X7988D02*
D03*
X2476D02*
D03*
D17*
X50094Y39925D02*
D03*
Y45437D02*
D03*
Y50949D02*
D03*
Y56461D02*
D03*
Y61972D02*
D03*
Y67484D02*
D03*
Y72996D02*
D03*
Y78508D02*
D03*
M02*
