M48
;Layer_Color=9474304
;FILE_FORMAT=2:5
INCH,LZ
;TYPE=PLATED
T1F00S00C0.00800
T2F00S00C0.03543
;TYPE=NON_PLATED
T3F00S00C0.10827
%
T01
X0035Y00085
X0041Y00425
X002Y00465
Y0051
Y00565
Y00625
Y00685
X0019012Y0075024
X0007988
X0041Y00685
X01Y00665
Y00605
Y00545
Y00725
X00875Y00485
Y00425
X01275Y006
Y00675
Y0075
X01575Y006
X01865Y00625
X01985
X0206
X01775Y0032
T02
X0033Y00995
Y01095
X0043
X0053
X0063
X0073
X0083
X0093
X0103
Y00995
X0093
X0083
X0073
X0063
X0053
X0043
X0113
Y01095
X0123
X0133
X0143
X0153
X0163
X0173
X0183
X0193
X0203
X0213
X0223
Y00995
X0213
X0203
X0193
X0183
X0173
X0163
X0153
X0143
X0133
X0123
T03
X0013827Y0013949
Y01045
X0242173
Y0013949
M30
