G04 Layer_Color=32896*
%FSLAX25Y25*%
%MOIN*%
G70*
G01*
G75*
G36*
X17910Y64267D02*
X17975Y64174D01*
X18045Y64086D01*
X18115Y64004D01*
X18180Y63940D01*
X18232Y63887D01*
X18267Y63852D01*
X18273Y63846D01*
X18279Y63840D01*
X18390Y63747D01*
X18507Y63659D01*
X18624Y63583D01*
X18730Y63519D01*
X18823Y63466D01*
X18864Y63448D01*
X18899Y63431D01*
X18923Y63413D01*
X18946Y63402D01*
X18958Y63396D01*
X18963D01*
Y62934D01*
X18882Y62969D01*
X18794Y63010D01*
X18712Y63045D01*
X18636Y63086D01*
X18572Y63121D01*
X18519Y63150D01*
X18484Y63174D01*
X18478Y63179D01*
X18472D01*
X18373Y63238D01*
X18285Y63302D01*
X18209Y63355D01*
X18145Y63407D01*
X18092Y63448D01*
X18051Y63478D01*
X18027Y63501D01*
X18022Y63507D01*
Y60500D01*
X17548D01*
Y64361D01*
X17858D01*
X17910Y64267D01*
D02*
G37*
G36*
X23000Y54500D02*
X22491D01*
Y56208D01*
X21836D01*
X21777Y56202D01*
X21731D01*
X21690Y56196D01*
X21660Y56191D01*
X21637D01*
X21625Y56185D01*
X21619D01*
X21532Y56156D01*
X21461Y56121D01*
X21432Y56103D01*
X21409Y56091D01*
X21397Y56085D01*
X21391Y56080D01*
X21344Y56050D01*
X21304Y56009D01*
X21216Y55927D01*
X21186Y55887D01*
X21157Y55851D01*
X21140Y55828D01*
X21134Y55822D01*
X21075Y55746D01*
X21017Y55664D01*
X20953Y55576D01*
X20894Y55489D01*
X20841Y55413D01*
X20800Y55354D01*
X20789Y55331D01*
X20777Y55313D01*
X20765Y55301D01*
Y55296D01*
X20256Y54500D01*
X19619D01*
X20286Y55541D01*
X20362Y55652D01*
X20438Y55752D01*
X20508Y55840D01*
X20572Y55916D01*
X20625Y55974D01*
X20666Y56021D01*
X20695Y56044D01*
X20707Y56056D01*
X20748Y56091D01*
X20800Y56126D01*
X20900Y56191D01*
X20941Y56214D01*
X20976Y56232D01*
X20999Y56243D01*
X21011Y56249D01*
X20911Y56267D01*
X20818Y56284D01*
X20730Y56308D01*
X20654Y56337D01*
X20578Y56366D01*
X20514Y56395D01*
X20449Y56425D01*
X20397Y56454D01*
X20350Y56483D01*
X20309Y56507D01*
X20274Y56536D01*
X20245Y56553D01*
X20227Y56577D01*
X20210Y56589D01*
X20198Y56600D01*
X20151Y56653D01*
X20110Y56711D01*
X20040Y56828D01*
X19993Y56939D01*
X19964Y57051D01*
X19940Y57144D01*
X19935Y57185D01*
Y57220D01*
X19929Y57249D01*
Y57273D01*
Y57285D01*
Y57290D01*
X19935Y57407D01*
X19952Y57513D01*
X19981Y57612D01*
X20011Y57700D01*
X20040Y57770D01*
X20069Y57823D01*
X20087Y57858D01*
X20092Y57870D01*
X20157Y57963D01*
X20227Y58039D01*
X20297Y58104D01*
X20368Y58150D01*
X20426Y58191D01*
X20473Y58221D01*
X20508Y58232D01*
X20514Y58238D01*
X20520D01*
X20572Y58256D01*
X20631Y58273D01*
X20754Y58297D01*
X20882Y58320D01*
X21005Y58332D01*
X21122Y58338D01*
X21169D01*
X21216Y58343D01*
X23000D01*
Y54500D01*
D02*
G37*
G36*
Y60500D02*
X22491D01*
Y62208D01*
X21836D01*
X21777Y62202D01*
X21731D01*
X21690Y62196D01*
X21660Y62191D01*
X21637D01*
X21625Y62185D01*
X21619D01*
X21532Y62156D01*
X21461Y62120D01*
X21432Y62103D01*
X21409Y62091D01*
X21397Y62085D01*
X21391Y62080D01*
X21344Y62050D01*
X21304Y62009D01*
X21216Y61927D01*
X21186Y61887D01*
X21157Y61851D01*
X21140Y61828D01*
X21134Y61822D01*
X21075Y61746D01*
X21017Y61664D01*
X20953Y61576D01*
X20894Y61489D01*
X20841Y61413D01*
X20800Y61354D01*
X20789Y61331D01*
X20777Y61313D01*
X20765Y61301D01*
Y61296D01*
X20256Y60500D01*
X19619D01*
X20286Y61541D01*
X20362Y61652D01*
X20438Y61752D01*
X20508Y61840D01*
X20572Y61916D01*
X20625Y61974D01*
X20666Y62021D01*
X20695Y62044D01*
X20707Y62056D01*
X20748Y62091D01*
X20800Y62126D01*
X20900Y62191D01*
X20941Y62214D01*
X20976Y62232D01*
X20999Y62243D01*
X21011Y62249D01*
X20911Y62267D01*
X20818Y62284D01*
X20730Y62308D01*
X20654Y62337D01*
X20578Y62366D01*
X20514Y62395D01*
X20449Y62425D01*
X20397Y62454D01*
X20350Y62483D01*
X20309Y62507D01*
X20274Y62536D01*
X20245Y62553D01*
X20227Y62577D01*
X20210Y62589D01*
X20198Y62600D01*
X20151Y62653D01*
X20110Y62711D01*
X20040Y62828D01*
X19993Y62939D01*
X19964Y63051D01*
X19940Y63144D01*
X19935Y63185D01*
Y63220D01*
X19929Y63249D01*
Y63273D01*
Y63285D01*
Y63290D01*
X19935Y63407D01*
X19952Y63513D01*
X19981Y63612D01*
X20011Y63700D01*
X20040Y63770D01*
X20069Y63823D01*
X20087Y63858D01*
X20092Y63870D01*
X20157Y63963D01*
X20227Y64039D01*
X20297Y64104D01*
X20368Y64150D01*
X20426Y64191D01*
X20473Y64221D01*
X20508Y64232D01*
X20514Y64238D01*
X20520D01*
X20572Y64256D01*
X20631Y64273D01*
X20754Y64297D01*
X20882Y64320D01*
X21005Y64332D01*
X21122Y64338D01*
X21169D01*
X21216Y64343D01*
X23000D01*
Y60500D01*
D02*
G37*
G36*
X19484Y67851D02*
Y67418D01*
X17817D01*
Y66500D01*
X17343D01*
Y67418D01*
X16822D01*
Y67851D01*
X17343D01*
Y70338D01*
X17729D01*
X19484Y67851D01*
D02*
G37*
G36*
X23000Y66500D02*
X22491D01*
Y68208D01*
X21836D01*
X21777Y68202D01*
X21731D01*
X21690Y68196D01*
X21660Y68191D01*
X21637D01*
X21625Y68185D01*
X21619D01*
X21532Y68156D01*
X21461Y68120D01*
X21432Y68103D01*
X21409Y68091D01*
X21397Y68085D01*
X21391Y68080D01*
X21344Y68050D01*
X21304Y68009D01*
X21216Y67927D01*
X21186Y67887D01*
X21157Y67851D01*
X21140Y67828D01*
X21134Y67822D01*
X21075Y67746D01*
X21017Y67664D01*
X20953Y67576D01*
X20894Y67489D01*
X20841Y67413D01*
X20800Y67354D01*
X20789Y67331D01*
X20777Y67313D01*
X20765Y67301D01*
Y67296D01*
X20256Y66500D01*
X19619D01*
X20286Y67541D01*
X20362Y67652D01*
X20438Y67752D01*
X20508Y67840D01*
X20572Y67916D01*
X20625Y67974D01*
X20666Y68021D01*
X20695Y68044D01*
X20707Y68056D01*
X20748Y68091D01*
X20800Y68126D01*
X20900Y68191D01*
X20941Y68214D01*
X20976Y68232D01*
X20999Y68243D01*
X21011Y68249D01*
X20911Y68267D01*
X20818Y68284D01*
X20730Y68308D01*
X20654Y68337D01*
X20578Y68366D01*
X20514Y68395D01*
X20449Y68425D01*
X20397Y68454D01*
X20350Y68483D01*
X20309Y68507D01*
X20274Y68536D01*
X20245Y68553D01*
X20227Y68577D01*
X20210Y68589D01*
X20198Y68600D01*
X20151Y68653D01*
X20110Y68711D01*
X20040Y68828D01*
X19993Y68939D01*
X19964Y69051D01*
X19940Y69144D01*
X19935Y69185D01*
Y69220D01*
X19929Y69249D01*
Y69273D01*
Y69285D01*
Y69290D01*
X19935Y69407D01*
X19952Y69513D01*
X19981Y69612D01*
X20011Y69700D01*
X20040Y69770D01*
X20069Y69823D01*
X20087Y69858D01*
X20092Y69870D01*
X20157Y69963D01*
X20227Y70039D01*
X20297Y70104D01*
X20368Y70150D01*
X20426Y70191D01*
X20473Y70221D01*
X20508Y70232D01*
X20514Y70238D01*
X20520D01*
X20572Y70256D01*
X20631Y70273D01*
X20754Y70297D01*
X20882Y70320D01*
X21005Y70332D01*
X21122Y70338D01*
X21169D01*
X21216Y70343D01*
X23000D01*
Y66500D01*
D02*
G37*
G36*
Y44500D02*
X22491D01*
Y46208D01*
X21836D01*
X21777Y46202D01*
X21731D01*
X21690Y46196D01*
X21660Y46191D01*
X21637D01*
X21625Y46185D01*
X21619D01*
X21532Y46156D01*
X21461Y46120D01*
X21432Y46103D01*
X21409Y46091D01*
X21397Y46085D01*
X21391Y46079D01*
X21344Y46050D01*
X21304Y46009D01*
X21216Y45927D01*
X21186Y45886D01*
X21157Y45851D01*
X21140Y45828D01*
X21134Y45822D01*
X21075Y45746D01*
X21017Y45664D01*
X20953Y45576D01*
X20894Y45489D01*
X20841Y45413D01*
X20800Y45354D01*
X20789Y45331D01*
X20777Y45313D01*
X20765Y45301D01*
Y45296D01*
X20256Y44500D01*
X19619D01*
X20286Y45541D01*
X20362Y45652D01*
X20438Y45752D01*
X20508Y45840D01*
X20572Y45916D01*
X20625Y45974D01*
X20666Y46021D01*
X20695Y46044D01*
X20707Y46056D01*
X20748Y46091D01*
X20800Y46126D01*
X20900Y46191D01*
X20941Y46214D01*
X20976Y46232D01*
X20999Y46243D01*
X21011Y46249D01*
X20911Y46267D01*
X20818Y46284D01*
X20730Y46308D01*
X20654Y46337D01*
X20578Y46366D01*
X20514Y46395D01*
X20449Y46425D01*
X20397Y46454D01*
X20350Y46483D01*
X20309Y46507D01*
X20274Y46536D01*
X20245Y46553D01*
X20227Y46577D01*
X20210Y46589D01*
X20198Y46600D01*
X20151Y46653D01*
X20110Y46711D01*
X20040Y46828D01*
X19993Y46939D01*
X19964Y47051D01*
X19940Y47144D01*
X19935Y47185D01*
Y47220D01*
X19929Y47249D01*
Y47273D01*
Y47285D01*
Y47290D01*
X19935Y47407D01*
X19952Y47513D01*
X19981Y47612D01*
X20011Y47700D01*
X20040Y47770D01*
X20069Y47823D01*
X20087Y47858D01*
X20092Y47870D01*
X20157Y47963D01*
X20227Y48039D01*
X20297Y48104D01*
X20368Y48150D01*
X20426Y48191D01*
X20473Y48221D01*
X20508Y48232D01*
X20514Y48238D01*
X20520D01*
X20572Y48256D01*
X20631Y48273D01*
X20754Y48297D01*
X20882Y48320D01*
X21005Y48332D01*
X21122Y48338D01*
X21169D01*
X21216Y48344D01*
X23000D01*
Y44500D01*
D02*
G37*
G36*
X18285Y48349D02*
X18431Y48320D01*
X18566Y48279D01*
X18677Y48232D01*
X18765Y48180D01*
X18800Y48156D01*
X18829Y48139D01*
X18858Y48121D01*
X18876Y48109D01*
X18882Y48104D01*
X18888Y48098D01*
X18993Y47993D01*
X19075Y47875D01*
X19145Y47753D01*
X19192Y47636D01*
X19233Y47530D01*
X19244Y47484D01*
X19256Y47442D01*
X19262Y47413D01*
X19268Y47390D01*
X19274Y47372D01*
Y47366D01*
X18800Y47285D01*
X18776Y47407D01*
X18741Y47513D01*
X18706Y47600D01*
X18665Y47671D01*
X18630Y47729D01*
X18601Y47770D01*
X18577Y47793D01*
X18572Y47799D01*
X18496Y47858D01*
X18419Y47899D01*
X18343Y47934D01*
X18267Y47951D01*
X18209Y47963D01*
X18156Y47975D01*
X18109D01*
X18010Y47969D01*
X17922Y47946D01*
X17846Y47922D01*
X17782Y47887D01*
X17729Y47858D01*
X17688Y47829D01*
X17665Y47805D01*
X17659Y47799D01*
X17601Y47735D01*
X17560Y47659D01*
X17524Y47589D01*
X17507Y47524D01*
X17495Y47460D01*
X17483Y47413D01*
Y47384D01*
Y47378D01*
Y47372D01*
X17495Y47255D01*
X17524Y47156D01*
X17560Y47074D01*
X17606Y47010D01*
X17653Y46957D01*
X17688Y46916D01*
X17717Y46893D01*
X17729Y46887D01*
X17823Y46834D01*
X17916Y46799D01*
X18004Y46770D01*
X18086Y46752D01*
X18162Y46741D01*
X18215Y46735D01*
X18291D01*
X18314Y46741D01*
X18343D01*
X18396Y46325D01*
X18326Y46343D01*
X18261Y46354D01*
X18203Y46360D01*
X18156Y46366D01*
X18115Y46372D01*
X18063D01*
X17946Y46360D01*
X17846Y46337D01*
X17752Y46308D01*
X17676Y46267D01*
X17612Y46226D01*
X17565Y46196D01*
X17542Y46173D01*
X17530Y46161D01*
X17460Y46079D01*
X17407Y45992D01*
X17367Y45898D01*
X17343Y45816D01*
X17325Y45740D01*
X17320Y45682D01*
X17314Y45658D01*
Y45641D01*
Y45635D01*
Y45629D01*
X17325Y45506D01*
X17349Y45395D01*
X17384Y45296D01*
X17425Y45214D01*
X17472Y45143D01*
X17507Y45097D01*
X17530Y45068D01*
X17542Y45056D01*
X17630Y44980D01*
X17723Y44921D01*
X17817Y44886D01*
X17910Y44857D01*
X17987Y44839D01*
X18045Y44833D01*
X18068Y44828D01*
X18104D01*
X18203Y44833D01*
X18297Y44857D01*
X18379Y44886D01*
X18443Y44915D01*
X18501Y44951D01*
X18542Y44974D01*
X18566Y44997D01*
X18577Y45003D01*
X18642Y45079D01*
X18700Y45167D01*
X18747Y45266D01*
X18782Y45360D01*
X18811Y45448D01*
X18829Y45518D01*
X18841Y45541D01*
Y45565D01*
X18846Y45576D01*
Y45582D01*
X19320Y45518D01*
X19309Y45430D01*
X19291Y45348D01*
X19239Y45196D01*
X19180Y45062D01*
X19110Y44945D01*
X19081Y44898D01*
X19045Y44857D01*
X19016Y44822D01*
X18993Y44787D01*
X18969Y44763D01*
X18952Y44746D01*
X18946Y44740D01*
X18940Y44734D01*
X18876Y44681D01*
X18805Y44635D01*
X18741Y44594D01*
X18671Y44564D01*
X18531Y44506D01*
X18396Y44471D01*
X18338Y44459D01*
X18279Y44453D01*
X18232Y44447D01*
X18185Y44442D01*
X18150Y44436D01*
X18104D01*
X18004Y44442D01*
X17905Y44453D01*
X17811Y44465D01*
X17723Y44488D01*
X17641Y44517D01*
X17565Y44547D01*
X17495Y44576D01*
X17431Y44611D01*
X17378Y44640D01*
X17325Y44670D01*
X17279Y44699D01*
X17244Y44728D01*
X17214Y44752D01*
X17197Y44763D01*
X17185Y44775D01*
X17179Y44781D01*
X17115Y44851D01*
X17056Y44921D01*
X17010Y44991D01*
X16969Y45062D01*
X16928Y45132D01*
X16898Y45208D01*
X16858Y45342D01*
X16840Y45401D01*
X16828Y45459D01*
X16822Y45506D01*
X16817Y45553D01*
X16811Y45588D01*
Y45612D01*
Y45629D01*
Y45635D01*
X16817Y45770D01*
X16840Y45892D01*
X16869Y45998D01*
X16904Y46085D01*
X16945Y46156D01*
X16974Y46208D01*
X16998Y46243D01*
X17004Y46255D01*
X17080Y46343D01*
X17167Y46413D01*
X17255Y46471D01*
X17337Y46512D01*
X17413Y46547D01*
X17472Y46565D01*
X17495Y46577D01*
X17513D01*
X17524Y46583D01*
X17530D01*
X17437Y46629D01*
X17355Y46688D01*
X17290Y46741D01*
X17232Y46793D01*
X17191Y46840D01*
X17156Y46875D01*
X17138Y46898D01*
X17132Y46910D01*
X17086Y46986D01*
X17056Y47068D01*
X17033Y47144D01*
X17016Y47214D01*
X17004Y47273D01*
X16998Y47320D01*
Y47349D01*
Y47361D01*
X17004Y47460D01*
X17021Y47548D01*
X17045Y47630D01*
X17068Y47706D01*
X17091Y47764D01*
X17115Y47811D01*
X17132Y47840D01*
X17138Y47852D01*
X17197Y47934D01*
X17261Y48010D01*
X17331Y48074D01*
X17396Y48127D01*
X17454Y48168D01*
X17501Y48197D01*
X17536Y48215D01*
X17542Y48221D01*
X17548D01*
X17647Y48267D01*
X17747Y48303D01*
X17846Y48326D01*
X17934Y48344D01*
X18010Y48355D01*
X18068Y48361D01*
X18203D01*
X18285Y48349D01*
D02*
G37*
G36*
X18156Y58355D02*
X18250Y58349D01*
X18425Y58314D01*
X18501Y58297D01*
X18577Y58273D01*
X18642Y58244D01*
X18700Y58221D01*
X18753Y58191D01*
X18800Y58168D01*
X18841Y58139D01*
X18876Y58121D01*
X18899Y58104D01*
X18917Y58086D01*
X18928Y58080D01*
X18934Y58074D01*
X18993Y58016D01*
X19039Y57957D01*
X19127Y57823D01*
X19192Y57688D01*
X19239Y57554D01*
X19274Y57437D01*
X19279Y57384D01*
X19291Y57337D01*
X19297Y57302D01*
X19303Y57273D01*
Y57255D01*
Y57249D01*
X18817Y57197D01*
X18805Y57326D01*
X18782Y57437D01*
X18753Y57530D01*
X18712Y57612D01*
X18677Y57677D01*
X18642Y57723D01*
X18618Y57747D01*
X18612Y57758D01*
X18531Y57829D01*
X18443Y57881D01*
X18349Y57916D01*
X18261Y57946D01*
X18185Y57957D01*
X18127Y57963D01*
X18104Y57969D01*
X18068D01*
X17951Y57963D01*
X17846Y57940D01*
X17758Y57911D01*
X17682Y57876D01*
X17624Y57835D01*
X17577Y57805D01*
X17554Y57782D01*
X17542Y57776D01*
X17472Y57700D01*
X17425Y57618D01*
X17390Y57542D01*
X17361Y57466D01*
X17349Y57402D01*
X17343Y57349D01*
X17337Y57314D01*
Y57308D01*
Y57302D01*
X17349Y57203D01*
X17372Y57097D01*
X17407Y57004D01*
X17448Y56916D01*
X17489Y56840D01*
X17524Y56782D01*
X17536Y56758D01*
X17548Y56740D01*
X17560Y56735D01*
Y56729D01*
X17606Y56670D01*
X17659Y56606D01*
X17717Y56542D01*
X17788Y56477D01*
X17928Y56343D01*
X18068Y56208D01*
X18197Y56097D01*
X18256Y56044D01*
X18308Y56003D01*
X18349Y55963D01*
X18379Y55939D01*
X18402Y55922D01*
X18408Y55916D01*
X18548Y55793D01*
X18677Y55682D01*
X18782Y55582D01*
X18870Y55500D01*
X18940Y55430D01*
X18987Y55378D01*
X19016Y55342D01*
X19028Y55336D01*
Y55331D01*
X19104Y55237D01*
X19162Y55149D01*
X19221Y55062D01*
X19262Y54986D01*
X19297Y54915D01*
X19320Y54869D01*
X19332Y54834D01*
X19338Y54828D01*
Y54822D01*
X19355Y54763D01*
X19373Y54705D01*
X19379Y54652D01*
X19385Y54605D01*
X19390Y54564D01*
Y54529D01*
Y54506D01*
Y54500D01*
X16846D01*
Y54950D01*
X18735D01*
X18671Y55044D01*
X18607Y55120D01*
X18577Y55155D01*
X18554Y55179D01*
X18542Y55196D01*
X18536Y55202D01*
X18507Y55231D01*
X18478Y55260D01*
X18402Y55331D01*
X18308Y55413D01*
X18221Y55494D01*
X18133Y55571D01*
X18063Y55629D01*
X18033Y55652D01*
X18010Y55670D01*
X17998Y55682D01*
X17992Y55687D01*
X17899Y55769D01*
X17817Y55840D01*
X17735Y55910D01*
X17665Y55974D01*
X17601Y56038D01*
X17542Y56091D01*
X17483Y56144D01*
X17437Y56191D01*
X17396Y56232D01*
X17361Y56267D01*
X17308Y56319D01*
X17279Y56354D01*
X17267Y56366D01*
X17191Y56460D01*
X17121Y56542D01*
X17068Y56624D01*
X17027Y56694D01*
X16992Y56752D01*
X16969Y56793D01*
X16957Y56823D01*
X16951Y56834D01*
X16916Y56916D01*
X16893Y56998D01*
X16875Y57074D01*
X16863Y57144D01*
X16858Y57203D01*
X16852Y57249D01*
Y57279D01*
Y57290D01*
X16858Y57372D01*
X16863Y57454D01*
X16904Y57600D01*
X16957Y57729D01*
X17016Y57840D01*
X17074Y57928D01*
X17103Y57963D01*
X17127Y57998D01*
X17150Y58022D01*
X17167Y58039D01*
X17173Y58045D01*
X17179Y58051D01*
X17244Y58104D01*
X17308Y58156D01*
X17378Y58197D01*
X17454Y58232D01*
X17601Y58285D01*
X17741Y58320D01*
X17805Y58338D01*
X17864Y58343D01*
X17916Y58349D01*
X17963Y58355D01*
X18004Y58361D01*
X18057D01*
X18156Y58355D01*
D02*
G37*
%LPC*%
G36*
X22491Y57916D02*
X21280D01*
X21128Y57911D01*
X20999Y57887D01*
X20894Y57864D01*
X20806Y57829D01*
X20742Y57799D01*
X20689Y57770D01*
X20666Y57747D01*
X20654Y57741D01*
X20590Y57671D01*
X20537Y57595D01*
X20502Y57519D01*
X20479Y57448D01*
X20467Y57384D01*
X20455Y57337D01*
Y57302D01*
Y57296D01*
Y57290D01*
X20461Y57220D01*
X20473Y57156D01*
X20490Y57097D01*
X20508Y57051D01*
X20526Y57004D01*
X20543Y56975D01*
X20555Y56951D01*
X20561Y56945D01*
X20602Y56893D01*
X20648Y56846D01*
X20701Y56805D01*
X20748Y56770D01*
X20789Y56746D01*
X20824Y56729D01*
X20847Y56723D01*
X20859Y56717D01*
X20935Y56694D01*
X21023Y56676D01*
X21116Y56665D01*
X21204Y56659D01*
X21280Y56653D01*
X21344Y56647D01*
X22491D01*
Y57916D01*
D02*
G37*
G36*
Y63916D02*
X21280D01*
X21128Y63911D01*
X20999Y63887D01*
X20894Y63864D01*
X20806Y63829D01*
X20742Y63799D01*
X20689Y63770D01*
X20666Y63747D01*
X20654Y63741D01*
X20590Y63671D01*
X20537Y63595D01*
X20502Y63519D01*
X20479Y63448D01*
X20467Y63384D01*
X20455Y63337D01*
Y63302D01*
Y63296D01*
Y63290D01*
X20461Y63220D01*
X20473Y63156D01*
X20490Y63097D01*
X20508Y63051D01*
X20526Y63004D01*
X20543Y62975D01*
X20555Y62951D01*
X20561Y62945D01*
X20602Y62893D01*
X20648Y62846D01*
X20701Y62805D01*
X20748Y62770D01*
X20789Y62746D01*
X20824Y62729D01*
X20847Y62723D01*
X20859Y62717D01*
X20935Y62694D01*
X21023Y62676D01*
X21116Y62665D01*
X21204Y62659D01*
X21280Y62653D01*
X21344Y62647D01*
X22491D01*
Y63916D01*
D02*
G37*
G36*
X17817Y69571D02*
Y67851D01*
X19022D01*
X17817Y69571D01*
D02*
G37*
G36*
X22491Y69916D02*
X21280D01*
X21128Y69911D01*
X20999Y69887D01*
X20894Y69864D01*
X20806Y69829D01*
X20742Y69799D01*
X20689Y69770D01*
X20666Y69747D01*
X20654Y69741D01*
X20590Y69671D01*
X20537Y69595D01*
X20502Y69519D01*
X20479Y69448D01*
X20467Y69384D01*
X20455Y69337D01*
Y69302D01*
Y69296D01*
Y69290D01*
X20461Y69220D01*
X20473Y69156D01*
X20490Y69097D01*
X20508Y69051D01*
X20526Y69004D01*
X20543Y68975D01*
X20555Y68951D01*
X20561Y68945D01*
X20602Y68893D01*
X20648Y68846D01*
X20701Y68805D01*
X20748Y68770D01*
X20789Y68746D01*
X20824Y68729D01*
X20847Y68723D01*
X20859Y68717D01*
X20935Y68694D01*
X21023Y68676D01*
X21116Y68664D01*
X21204Y68659D01*
X21280Y68653D01*
X21344Y68647D01*
X22491D01*
Y69916D01*
D02*
G37*
G36*
Y47916D02*
X21280D01*
X21128Y47911D01*
X20999Y47887D01*
X20894Y47864D01*
X20806Y47829D01*
X20742Y47799D01*
X20689Y47770D01*
X20666Y47747D01*
X20654Y47741D01*
X20590Y47671D01*
X20537Y47595D01*
X20502Y47519D01*
X20479Y47448D01*
X20467Y47384D01*
X20455Y47337D01*
Y47302D01*
Y47296D01*
Y47290D01*
X20461Y47220D01*
X20473Y47156D01*
X20490Y47097D01*
X20508Y47051D01*
X20526Y47004D01*
X20543Y46975D01*
X20555Y46951D01*
X20561Y46945D01*
X20602Y46893D01*
X20648Y46846D01*
X20701Y46805D01*
X20748Y46770D01*
X20789Y46746D01*
X20824Y46729D01*
X20847Y46723D01*
X20859Y46717D01*
X20935Y46694D01*
X21023Y46676D01*
X21116Y46665D01*
X21204Y46659D01*
X21280Y46653D01*
X21344Y46647D01*
X22491D01*
Y47916D01*
D02*
G37*
%LPD*%
M02*
