G04 Layer_Physical_Order=1*
G04 Layer_Color=255*
%FSLAX25Y25*%
%MOIN*%
G70*
G01*
G75*
%ADD10R,0.03937X0.03937*%
%ADD11R,0.03937X0.03740*%
%ADD12R,0.05905X0.04331*%
%ADD13R,0.03740X0.03937*%
%ADD14R,0.03740X0.03543*%
%ADD15R,0.03150X0.03150*%
%ADD16R,0.03937X0.09646*%
%ADD17R,0.09646X0.03937*%
%ADD18C,0.02000*%
%ADD19C,0.00800*%
%ADD20C,0.01000*%
%ADD21C,0.05905*%
%ADD22R,0.05905X0.05905*%
%ADD23C,0.23622*%
%ADD24C,0.02200*%
D10*
X142500Y60000D02*
D03*
Y75000D02*
D03*
Y67500D02*
D03*
Y82500D02*
D03*
D11*
X136201Y60000D02*
D03*
X148799Y60000D02*
D03*
Y75000D02*
D03*
X136201Y75000D02*
D03*
Y67500D02*
D03*
X148799Y67500D02*
D03*
Y82500D02*
D03*
X136201Y82500D02*
D03*
X80650Y66500D02*
D03*
X74350D02*
D03*
X80650Y60500D02*
D03*
X74350D02*
D03*
X80650Y54500D02*
D03*
X74350D02*
D03*
X74350Y48500D02*
D03*
X80650D02*
D03*
X74350Y42500D02*
D03*
X80650D02*
D03*
X80650Y72500D02*
D03*
X74350D02*
D03*
D12*
X186594Y37953D02*
D03*
Y32047D02*
D03*
X198406D02*
D03*
Y37953D02*
D03*
D13*
X206000Y38150D02*
D03*
Y31850D02*
D03*
X186500Y44850D02*
D03*
Y51150D02*
D03*
X198500Y51150D02*
D03*
Y44850D02*
D03*
D14*
X48150Y14000D02*
D03*
X41850D02*
D03*
X48150Y8500D02*
D03*
X41850D02*
D03*
X48150Y19500D02*
D03*
X41850D02*
D03*
D15*
X86850Y54500D02*
D03*
X93150D02*
D03*
X86850Y60500D02*
D03*
X93150D02*
D03*
X86850Y66500D02*
D03*
X93150D02*
D03*
X86850Y72500D02*
D03*
X93150D02*
D03*
D16*
X2476Y34433D02*
D03*
X7988D02*
D03*
X13500D02*
D03*
X19012D02*
D03*
X24524D02*
D03*
X30035D02*
D03*
X35547D02*
D03*
X41059D02*
D03*
X41059Y84000D02*
D03*
X35547D02*
D03*
X30035Y84000D02*
D03*
X24524D02*
D03*
X19012D02*
D03*
X13500D02*
D03*
X7988D02*
D03*
X2476D02*
D03*
D17*
X50094Y39925D02*
D03*
Y45437D02*
D03*
Y50949D02*
D03*
Y56461D02*
D03*
Y61972D02*
D03*
Y67484D02*
D03*
Y72996D02*
D03*
Y78508D02*
D03*
D18*
X41059Y34433D02*
Y73559D01*
X2476Y75024D02*
X7988D01*
Y84000D01*
X41059Y73559D02*
X46008Y78508D01*
X50094D01*
X19012Y75024D02*
Y84000D01*
X55000Y19500D02*
Y20492D01*
X41059Y34433D02*
X55000Y20492D01*
Y14000D02*
Y19500D01*
Y8500D02*
Y14000D01*
Y8500D02*
X203500D01*
X223000Y28000D01*
Y99500D01*
X177500Y32000D02*
X177547Y32047D01*
X186594D01*
X93150Y54500D02*
X100000D01*
X93150Y60500D02*
X100000D01*
X93150Y66500D02*
X100000D01*
X93150Y72500D02*
X100000D01*
X80650Y48500D02*
X87500D01*
X80650Y42500D02*
X87500D01*
X48150Y8500D02*
X55000D01*
X48150Y14000D02*
X55000D01*
X48150Y19500D02*
X55000D01*
X35000Y8500D02*
X41850D01*
Y14000D01*
Y19500D01*
X38886Y22465D02*
X41850Y19500D01*
X35547Y22465D02*
Y34433D01*
Y22465D02*
X38886D01*
X30035D02*
X35547D01*
X24524Y27976D02*
X30035Y22465D01*
Y34433D01*
X24524Y27976D02*
Y34433D01*
X2476Y75024D02*
Y84000D01*
D19*
X13500Y44500D02*
X20000Y51000D01*
X13500Y75000D02*
X20000Y68500D01*
X13500Y75000D02*
Y84000D01*
X2476Y44976D02*
X20000Y62500D01*
X2476Y34433D02*
Y44976D01*
X7988Y44488D02*
X20000Y56500D01*
X7988Y34433D02*
Y44488D01*
X13500Y34433D02*
Y44500D01*
X19012Y45512D02*
X20000Y46500D01*
X19012Y34433D02*
Y45512D01*
D20*
X29000Y93500D02*
X66500D01*
X32900Y91900D02*
X65837D01*
X36800Y90300D02*
X65175D01*
X148799Y60000D02*
X157500D01*
X205803Y32047D02*
X206000Y31850D01*
X198406Y32047D02*
X205803D01*
X198406Y44756D02*
X198500Y44850D01*
X198406Y37953D02*
Y44756D01*
X206000Y38150D02*
Y62500D01*
X198500Y51150D02*
Y62500D01*
X186500Y51150D02*
Y62500D01*
X127500Y60000D02*
X127500Y60000D01*
X136201D01*
X127500Y67500D02*
X127500Y67500D01*
X136201D01*
X127500Y75000D02*
X127500Y75000D01*
X136201D01*
X108500Y79000D02*
X139000D01*
X98700Y88800D02*
X108500Y79000D01*
X71200Y88800D02*
X98700D01*
X113000Y72000D02*
X139500D01*
X97800Y87200D02*
X113000Y72000D01*
X70537Y87200D02*
X97800D01*
X118000Y64500D02*
X139500D01*
X96900Y85600D02*
X118000Y64500D01*
X69875Y85600D02*
X96900D01*
X123000Y57000D02*
X139500D01*
X96000Y84000D02*
X123000Y57000D01*
X41059Y84000D02*
X96000D01*
X66500Y93500D02*
X71200Y88800D01*
X65837Y91900D02*
X70537Y87200D01*
X65175Y90300D02*
X69875Y85600D01*
X139500Y57000D02*
X142500Y60000D01*
X139000Y79000D02*
X142500Y82500D01*
X139500Y64500D02*
X142500Y67500D01*
X139500Y72000D02*
X142500Y75000D01*
X208000Y94500D02*
Y104500D01*
X181000Y67500D02*
X208000Y94500D01*
X148799Y67500D02*
X181000D01*
X208000Y104500D02*
X213000Y109500D01*
X218000Y114500D02*
X223000Y109500D01*
X190500Y114500D02*
X218000D01*
X187500Y111500D02*
X190500Y114500D01*
X187500Y91500D02*
Y111500D01*
X178500Y82500D02*
X187500Y91500D01*
X148799Y82500D02*
X178500D01*
Y75000D02*
X203000Y99500D01*
X148799Y75000D02*
X178500D01*
X136201Y92701D02*
X143000Y99500D01*
X136201Y82500D02*
Y92701D01*
X186500Y38047D02*
X186594Y37953D01*
X186500Y38047D02*
Y44850D01*
X80650Y54500D02*
X86850D01*
X80650Y60500D02*
X86850D01*
X80650Y66500D02*
X86850D01*
X80650Y72500D02*
X86850D01*
X50094Y39925D02*
X64925D01*
X67500Y42500D01*
X74350D01*
X50094Y45437D02*
X64937D01*
X68000Y48500D01*
X74350D01*
X50094Y50949D02*
X64949D01*
X68500Y54500D01*
X74350D01*
X50094Y61972D02*
X65028D01*
X66500Y60500D01*
X74350D01*
X50094Y72996D02*
X65000D01*
X65496Y72500D01*
X74350D01*
X50094Y67484D02*
X65000D01*
X65984Y66500D01*
X74350D01*
X24524Y89024D02*
X29000Y93500D01*
X24524Y84000D02*
Y89024D01*
X30035Y89035D02*
X32900Y91900D01*
X30035Y84000D02*
Y89035D01*
X35547Y89047D02*
X36800Y90300D01*
X35547Y84000D02*
Y89047D01*
D21*
X223000Y109500D02*
D03*
X213000D02*
D03*
X203000D02*
D03*
X193000D02*
D03*
X183000D02*
D03*
X173000D02*
D03*
X163000D02*
D03*
X153000D02*
D03*
X143000D02*
D03*
X133000D02*
D03*
X123000D02*
D03*
X113000D02*
D03*
X103000D02*
D03*
X93000D02*
D03*
X83000D02*
D03*
X73000D02*
D03*
X63000D02*
D03*
X53000D02*
D03*
X43000D02*
D03*
X33000D02*
D03*
X223000Y99500D02*
D03*
X213000D02*
D03*
X203000D02*
D03*
X193000D02*
D03*
X183000D02*
D03*
X173000D02*
D03*
X163000D02*
D03*
X153000D02*
D03*
X143000D02*
D03*
X133000D02*
D03*
X123000D02*
D03*
X113000D02*
D03*
X103000D02*
D03*
X93000D02*
D03*
X83000D02*
D03*
X73000D02*
D03*
X63000D02*
D03*
X53000D02*
D03*
X43000D02*
D03*
D22*
X33000D02*
D03*
D23*
X13827Y13949D02*
D03*
Y104500D02*
D03*
X242173Y13949D02*
D03*
Y104500D02*
D03*
D24*
X41000Y42500D02*
D03*
X20000Y51000D02*
D03*
X41000Y68500D02*
D03*
X20000D02*
D03*
X19012Y75024D02*
D03*
X7988D02*
D03*
X20000Y62500D02*
D03*
Y56500D02*
D03*
Y46500D02*
D03*
X157500Y60000D02*
D03*
X206000Y62500D02*
D03*
X198500D02*
D03*
X186500D02*
D03*
X127500Y60000D02*
D03*
Y67500D02*
D03*
Y75000D02*
D03*
X177500Y32000D02*
D03*
X100000Y54500D02*
D03*
Y60500D02*
D03*
Y66500D02*
D03*
Y72500D02*
D03*
X87500Y48500D02*
D03*
Y42500D02*
D03*
X35000Y8500D02*
D03*
M02*
