G04 Layer_Color=16711935*
%FSLAX25Y25*%
%MOIN*%
G70*
G01*
G75*
%ADD28R,0.04537X0.04340*%
%ADD35C,0.06506*%
%ADD36R,0.06506X0.06506*%
%ADD37C,0.26575*%
%ADD38C,0.02800*%
D28*
X33150Y68500D02*
D03*
X26850D02*
D03*
X33150Y46500D02*
D03*
X26850D02*
D03*
X33150Y56500D02*
D03*
X26850D02*
D03*
X33150Y62500D02*
D03*
X26850D02*
D03*
D35*
X223000Y109500D02*
D03*
X213000D02*
D03*
X203000D02*
D03*
X193000D02*
D03*
X183000D02*
D03*
X173000D02*
D03*
X163000D02*
D03*
X153000D02*
D03*
X143000D02*
D03*
X133000D02*
D03*
X123000D02*
D03*
X113000D02*
D03*
X103000D02*
D03*
X93000D02*
D03*
X83000D02*
D03*
X73000D02*
D03*
X63000D02*
D03*
X53000D02*
D03*
X43000D02*
D03*
X33000D02*
D03*
X223000Y99500D02*
D03*
X213000D02*
D03*
X203000D02*
D03*
X193000D02*
D03*
X183000D02*
D03*
X173000D02*
D03*
X163000D02*
D03*
X153000D02*
D03*
X143000D02*
D03*
X133000D02*
D03*
X123000D02*
D03*
X113000D02*
D03*
X103000D02*
D03*
X93000D02*
D03*
X83000D02*
D03*
X73000D02*
D03*
X63000D02*
D03*
X53000D02*
D03*
X43000D02*
D03*
D36*
X33000D02*
D03*
D37*
X13827Y13949D02*
D03*
Y104500D02*
D03*
X242173Y13949D02*
D03*
Y104500D02*
D03*
D38*
X41000Y42500D02*
D03*
X20000Y51000D02*
D03*
X41000Y68500D02*
D03*
X20000D02*
D03*
X19012Y75024D02*
D03*
X7988D02*
D03*
X20000Y62500D02*
D03*
Y56500D02*
D03*
Y46500D02*
D03*
X157500Y60000D02*
D03*
X206000Y62500D02*
D03*
X198500D02*
D03*
X186500D02*
D03*
X127500Y60000D02*
D03*
Y67500D02*
D03*
Y75000D02*
D03*
X177500Y32000D02*
D03*
X100000Y54500D02*
D03*
Y60500D02*
D03*
Y66500D02*
D03*
Y72500D02*
D03*
X87500Y48500D02*
D03*
Y42500D02*
D03*
X35000Y8500D02*
D03*
M02*
