G04 Layer_Color=8421504*
%FSLAX25Y25*%
%MOIN*%
G70*
G01*
G75*
%ADD10R,0.03150X0.03150*%
%ADD11R,0.03937X0.03740*%
%ADD12R,0.03740X0.03543*%
%ADD13R,0.03937X0.03937*%
%ADD14R,0.05905X0.04331*%
%ADD15R,0.03740X0.03937*%
%ADD16R,0.03937X0.09646*%
%ADD17R,0.09646X0.03937*%
D10*
X93150Y72500D02*
D03*
X86850D02*
D03*
X93150Y66500D02*
D03*
X86850D02*
D03*
X93150Y60500D02*
D03*
X86850D02*
D03*
X93150Y54500D02*
D03*
X86850D02*
D03*
D11*
X74350Y72500D02*
D03*
X80650D02*
D03*
X80650Y42500D02*
D03*
X74350D02*
D03*
X80650Y48500D02*
D03*
X74350D02*
D03*
X74350Y54500D02*
D03*
X80650D02*
D03*
X74350Y60500D02*
D03*
X80650D02*
D03*
X74350Y66500D02*
D03*
X80650D02*
D03*
X136201Y82500D02*
D03*
X148799Y82500D02*
D03*
X136201Y75000D02*
D03*
X148799Y75000D02*
D03*
Y67500D02*
D03*
X136201Y67500D02*
D03*
X148799Y60000D02*
D03*
X136201Y60000D02*
D03*
D12*
X41850Y8500D02*
D03*
X48150D02*
D03*
X41850Y14000D02*
D03*
X48150D02*
D03*
X41850Y19500D02*
D03*
X48150D02*
D03*
D13*
X142500Y82500D02*
D03*
Y75000D02*
D03*
Y67500D02*
D03*
Y60000D02*
D03*
D14*
X198406Y37953D02*
D03*
Y32047D02*
D03*
X186594D02*
D03*
Y37953D02*
D03*
D15*
X186500Y51150D02*
D03*
Y44850D02*
D03*
X198500Y44850D02*
D03*
Y51150D02*
D03*
X206000Y31850D02*
D03*
Y38150D02*
D03*
D16*
X2476Y84000D02*
D03*
X7988D02*
D03*
X13500D02*
D03*
X19012D02*
D03*
X24524D02*
D03*
X30035D02*
D03*
X35547Y84000D02*
D03*
X41059D02*
D03*
X41059Y34433D02*
D03*
X35547D02*
D03*
X30035D02*
D03*
X24524D02*
D03*
X19012D02*
D03*
X13500D02*
D03*
X7988D02*
D03*
X2476D02*
D03*
D17*
X50094Y78508D02*
D03*
Y72996D02*
D03*
Y67484D02*
D03*
Y61972D02*
D03*
Y56461D02*
D03*
Y50949D02*
D03*
Y45437D02*
D03*
Y39925D02*
D03*
M02*
